<svg width="468" height="471" viewBox="0 0 468 471" fill="none" xmlns="http://www.w3.org/2000/svg">
<ellipse cx="2.35394" cy="352.31" rx="2.35394" ry="2.27323" fill="#908A81"/>
<ellipse cx="15.6928" cy="352.31" rx="2.35394" ry="2.27323" fill="#908A81"/>
<ellipse cx="2.35394" cy="365.192" rx="2.35394" ry="2.27323" fill="#908A81"/>
<ellipse cx="15.6928" cy="365.192" rx="2.35394" ry="2.27323" fill="#908A81"/>
<ellipse cx="2.35394" cy="378.074" rx="2.35394" ry="2.27323" fill="#908A81"/>
<ellipse cx="15.6928" cy="378.074" rx="2.35394" ry="2.27323" fill="#908A81"/>
<ellipse cx="2.35394" cy="390.955" rx="2.35394" ry="2.27323" fill="#908A81"/>
<ellipse cx="15.6928" cy="390.955" rx="2.35394" ry="2.27323" fill="#908A81"/>
<ellipse cx="2.35394" cy="403.837" rx="2.35394" ry="2.27323" fill="#908A81"/>
<ellipse cx="15.6928" cy="403.837" rx="2.35394" ry="2.27323" fill="#908A81"/>
<ellipse cx="2.35394" cy="416.719" rx="2.35394" ry="2.27323" fill="#908A81"/>
<ellipse cx="15.6928" cy="416.719" rx="2.35394" ry="2.27323" fill="#908A81"/>
<ellipse cx="2.35394" cy="429.6" rx="2.35394" ry="2.27323" fill="#908A81"/>
<ellipse cx="15.6928" cy="429.6" rx="2.35394" ry="2.27323" fill="#908A81"/>
<ellipse cx="2.35394" cy="442.482" rx="2.35394" ry="2.27323" fill="#908A81"/>
<ellipse cx="15.6928" cy="442.482" rx="2.35394" ry="2.27323" fill="#908A81"/>
<ellipse cx="2.35394" cy="455.364" rx="2.35394" ry="2.27323" fill="#908A81"/>
<ellipse cx="15.6928" cy="455.364" rx="2.35394" ry="2.27323" fill="#908A81"/>
<ellipse cx="29.032" cy="455.364" rx="2.35394" ry="2.27323" fill="#908A81"/>
<ellipse cx="42.3708" cy="455.364" rx="2.35394" ry="2.27323" fill="#908A81"/>
<ellipse cx="55.7098" cy="455.364" rx="2.35394" ry="2.27323" fill="#908A81"/>
<ellipse cx="69.0488" cy="455.364" rx="2.35394" ry="2.27323" fill="#908A81"/>
<ellipse cx="82.3877" cy="455.364" rx="2.35394" ry="2.27323" fill="#908A81"/>
<ellipse cx="95.7267" cy="455.364" rx="2.35394" ry="2.27323" fill="#908A81"/>
<ellipse cx="109.066" cy="455.364" rx="2.35394" ry="2.27323" fill="#908A81"/>
<ellipse cx="122.405" cy="455.364" rx="2.35394" ry="2.27323" fill="#908A81"/>
<ellipse cx="2.35394" cy="468.245" rx="2.35394" ry="2.27323" fill="#908A81"/>
<ellipse cx="15.6928" cy="468.245" rx="2.35394" ry="2.27323" fill="#908A81"/>
<ellipse cx="29.032" cy="468.245" rx="2.35394" ry="2.27323" fill="#908A81"/>
<ellipse cx="42.3708" cy="468.245" rx="2.35394" ry="2.27323" fill="#908A81"/>
<ellipse cx="55.7098" cy="468.245" rx="2.35394" ry="2.27323" fill="#908A81"/>
<ellipse cx="69.0488" cy="468.245" rx="2.35394" ry="2.27323" fill="#908A81"/>
<ellipse cx="82.3877" cy="468.245" rx="2.35394" ry="2.27323" fill="#908A81"/>
<ellipse cx="95.7267" cy="468.245" rx="2.35394" ry="2.27323" fill="#908A81"/>
<ellipse cx="109.066" cy="468.245" rx="2.35394" ry="2.27323" fill="#908A81"/>
<ellipse cx="122.405" cy="468.245" rx="2.35394" ry="2.27323" fill="#908A81"/>
<path d="M86.4709 319.662H102.182V437.819H86.4709V319.662Z" fill="#00388B"/>
<path d="M86.4709 375.011H102.182V437.819H86.4709V375.011Z" fill="#F34A4A"/>
<path d="M55.0496 361.272H70.7603V437.819H55.0496V361.272Z" fill="#00388B"/>
<path d="M55.0496 400.134H70.7603V437.819H55.0496V400.134Z" fill="#F34A4A"/>
<rect x="117.892" y="295.716" width="15.7107" height="142.103" fill="#00388B"/>
<rect x="117.892" y="404.06" width="15.7107" height="33.7593" fill="#F34A4A"/>
<rect x="149.314" y="312.596" width="15.7107" height="125.223" fill="#00388B"/>
<rect x="149.314" y="367.946" width="15.7107" height="69.8739" fill="#F34A4A"/>
<rect x="180.735" y="350.281" width="15.7107" height="87.5386" fill="#00388B"/>
<rect x="180.735" y="397.386" width="15.7107" height="40.4326" fill="#F34A4A"/>
<rect x="212.157" y="295.716" width="15.7107" height="142.103" fill="#00388B"/>
<rect x="212.157" y="342.037" width="15.7107" height="95.7821" fill="#F34A4A"/>
<rect x="274.999" y="295.716" width="15.7107" height="142.103" fill="#00388B"/>
<rect x="274.999" y="328.69" width="15.7107" height="109.129" fill="#F34A4A"/>
<rect x="243.578" y="272.948" width="15.7107" height="164.871" fill="#00388B"/>
<rect x="243.578" y="357.347" width="15.7107" height="80.4727" fill="#F34A4A"/>
<line x1="44.0521" y1="436.319" x2="301.708" y2="436.319" stroke="black" stroke-width="3"/>
<ellipse cx="345.262" cy="2.27323" rx="2.35394" ry="2.27323" fill="#908A81"/>
<ellipse cx="358.601" cy="2.27323" rx="2.35394" ry="2.27323" fill="#908A81"/>
<ellipse cx="371.94" cy="2.27323" rx="2.35394" ry="2.27323" fill="#908A81"/>
<ellipse cx="385.279" cy="2.27323" rx="2.35394" ry="2.27323" fill="#908A81"/>
<ellipse cx="398.618" cy="2.27323" rx="2.35394" ry="2.27323" fill="#908A81"/>
<ellipse cx="411.957" cy="2.27323" rx="2.35394" ry="2.27323" fill="#908A81"/>
<ellipse cx="425.295" cy="2.27323" rx="2.35394" ry="2.27323" fill="#908A81"/>
<ellipse cx="438.635" cy="2.27323" rx="2.35394" ry="2.27323" fill="#908A81"/>
<ellipse cx="451.974" cy="2.27323" rx="2.35394" ry="2.27323" fill="#908A81"/>
<ellipse cx="465.313" cy="2.27323" rx="2.35394" ry="2.27323" fill="#908A81"/>
<ellipse cx="345.262" cy="15.1551" rx="2.35394" ry="2.27323" fill="#908A81"/>
<ellipse cx="358.601" cy="15.1551" rx="2.35394" ry="2.27323" fill="#908A81"/>
<ellipse cx="371.94" cy="15.1551" rx="2.35394" ry="2.27323" fill="#908A81"/>
<ellipse cx="385.279" cy="15.1551" rx="2.35394" ry="2.27323" fill="#908A81"/>
<ellipse cx="398.618" cy="15.1551" rx="2.35394" ry="2.27323" fill="#908A81"/>
<ellipse cx="411.957" cy="15.1551" rx="2.35394" ry="2.27323" fill="#908A81"/>
<ellipse cx="425.295" cy="15.1551" rx="2.35394" ry="2.27323" fill="#908A81"/>
<ellipse cx="438.635" cy="15.1551" rx="2.35394" ry="2.27323" fill="#908A81"/>
<ellipse cx="451.974" cy="15.1551" rx="2.35394" ry="2.27323" fill="#908A81"/>
<ellipse cx="465.313" cy="15.1551" rx="2.35394" ry="2.27323" fill="#908A81"/>
<ellipse cx="451.974" cy="28.0367" rx="2.35394" ry="2.27323" fill="#908A81"/>
<ellipse cx="465.313" cy="28.0367" rx="2.35394" ry="2.27323" fill="#908A81"/>
<ellipse cx="451.974" cy="40.9183" rx="2.35394" ry="2.27323" fill="#908A81"/>
<ellipse cx="465.313" cy="40.9183" rx="2.35394" ry="2.27323" fill="#908A81"/>
<ellipse cx="451.974" cy="53.7996" rx="2.35394" ry="2.27323" fill="#908A81"/>
<ellipse cx="465.313" cy="53.7996" rx="2.35394" ry="2.27323" fill="#908A81"/>
<ellipse cx="451.974" cy="66.6814" rx="2.35394" ry="2.27323" fill="#908A81"/>
<ellipse cx="465.313" cy="66.6814" rx="2.35394" ry="2.27323" fill="#908A81"/>
<ellipse cx="451.974" cy="79.5633" rx="2.35394" ry="2.27323" fill="#908A81"/>
<ellipse cx="465.313" cy="79.5633" rx="2.35394" ry="2.27323" fill="#908A81"/>
<ellipse cx="451.974" cy="92.4446" rx="2.35394" ry="2.27323" fill="#908A81"/>
<ellipse cx="465.313" cy="92.4446" rx="2.35394" ry="2.27323" fill="#908A81"/>
<ellipse cx="451.974" cy="105.326" rx="2.35394" ry="2.27323" fill="#908A81"/>
<ellipse cx="465.313" cy="105.326" rx="2.35394" ry="2.27323" fill="#908A81"/>
<ellipse cx="451.974" cy="118.208" rx="2.35394" ry="2.27323" fill="#908A81"/>
<ellipse cx="465.313" cy="118.208" rx="2.35394" ry="2.27323" fill="#908A81"/>
<circle cx="191.415" cy="170.741" r="3.92099" fill="#00388B"/>
<circle cx="191.415" cy="170.741" r="3.42099" stroke="black" stroke-opacity="0.5"/>
<circle cx="322.59" cy="120.125" r="3.92099" fill="#00388B"/>
<circle cx="322.59" cy="120.125" r="3.42099" stroke="black" stroke-opacity="0.5"/>
<circle cx="345.403" cy="107.292" r="3.92099" fill="#00388B"/>
<circle cx="345.403" cy="107.292" r="3.42099" stroke="black" stroke-opacity="0.5"/>
<circle cx="319.026" cy="94.46" r="3.92099" fill="#F34A4A"/>
<circle cx="319.026" cy="94.46" r="3.42099" stroke="black" stroke-opacity="0.5"/>
<circle cx="274.113" cy="70.9339" r="3.92099" fill="#F34A4A"/>
<circle cx="274.113" cy="70.9339" r="3.42099" stroke="black" stroke-opacity="0.5"/>
<circle cx="378.91" cy="86.618" r="3.92099" fill="#F34A4A"/>
<circle cx="378.91" cy="86.618" r="3.42099" stroke="black" stroke-opacity="0.5"/>
<circle cx="396.02" cy="60.2403" r="3.92099" fill="#F34A4A"/>
<circle cx="396.02" cy="60.2403" r="3.42099" stroke="black" stroke-opacity="0.5"/>
<circle cx="348.968" cy="65.9439" r="3.92099" fill="#F34A4A"/>
<circle cx="348.968" cy="65.9439" r="3.42099" stroke="black" stroke-opacity="0.5"/>
<circle cx="292.648" cy="99.4503" r="3.92099" fill="#00388B"/>
<circle cx="292.648" cy="99.4503" r="3.42099" stroke="black" stroke-opacity="0.5"/>
<circle cx="224.922" cy="136.522" r="3.92099" fill="#00388B"/>
<circle cx="224.922" cy="136.522" r="3.42099" stroke="black" stroke-opacity="0.5"/>
<line x1="193.561" y1="167.888" x2="222.791" y2="139.372" stroke="black"/>
<line x1="227.9" y1="133.582" x2="289.923" y2="101.501" stroke="black"/>
<line x1="295.423" y1="101.532" x2="319.662" y2="117.929" stroke="black"/>
<line x1="325.525" y1="118.637" x2="341.922" y2="107.943" stroke="black"/>
<line x1="322.578" y1="93.7659" x2="346.104" y2="68.1013" stroke="black"/>
<line x1="351.038" y1="68.7434" x2="375.277" y2="85.8531" stroke="black"/>
<line x1="380.278" y1="83.1294" x2="393.824" y2="63.168" stroke="black"/>
<line x1="277.573" y1="71.5718" x2="315.357" y2="93.6719" stroke="black"/>
</svg>
