<svg width="503" height="503" viewBox="0 0 503 503" fill="none" xmlns="http://www.w3.org/2000/svg">
<path d="M108.811 426.957C142.247 426.957 169.353 418.342 169.353 407.715C169.353 397.087 142.247 388.472 108.811 388.472C75.3739 388.472 48.2681 397.087 48.2681 407.715C48.2681 418.342 75.3739 426.957 108.811 426.957Z" fill="#142A42"/>
<path d="M452.476 407.715C452.476 418.341 425.37 426.957 391.933 426.957C358.495 426.957 331.39 418.342 331.39 407.715C331.39 397.087 358.495 388.472 391.933 388.472C425.37 388.472 452.476 397.088 452.476 407.715Z" fill="#142A42"/>
<path d="M325.025 457.025C325.025 468.447 291.051 477.707 249.143 477.707C207.234 477.707 173.26 468.447 173.26 457.025C173.26 445.603 207.234 436.344 249.143 436.344C291.051 436.344 325.025 445.603 325.025 457.025Z" fill="#142A42"/>
<path d="M330.854 40.1989V30.5352C330.854 28.8849 329.685 27.5493 328.245 27.5493H283.942C282.501 27.5493 282.126 28.6317 281.339 30.5352L277.564 40.0049H142.722C136.665 40.0049 131.753 45.63 131.753 52.5694V181.844C131.753 188.784 136.665 194.41 142.722 194.41H169.021H204.666H329.173C335.23 194.41 340.141 188.784 340.141 181.844V52.5682C340.139 46.2901 336.105 41.1299 330.854 40.1989Z" fill="#00388B"/>
<path d="M330.854 40.154V30.5352C330.854 28.8849 329.685 27.5493 328.245 27.5493H303.997C303.338 31.7146 301.962 35.4504 300.565 40.0049L330.854 40.154Z" fill="#00388B"/>
<path d="M328.245 27.5481H316.265C316.281 27.7125 316.314 27.871 316.323 28.0402C316.394 29.7378 315.43 39.5281 315.17 40.0049L330.855 40.1551V30.5363C330.854 28.8849 329.685 27.5481 328.245 27.5481Z" fill="#65BAE1"/>
<path d="M329.172 40.0037H300.564C278.638 101.293 225.662 145.391 165.021 145.391C153.602 145.391 142.474 143.78 131.752 140.834V181.842C131.752 188.781 136.664 194.408 142.721 194.408H169.02H204.665H329.172C335.228 194.408 340.14 188.781 340.14 181.842V52.5681C340.139 45.6287 335.228 40.0037 329.172 40.0037Z" fill="#00388B"/>
<path d="M329.172 40.0037H315.169C299.854 113.624 241.199 169.735 172.791 169.735C158.588 169.735 144.813 167.276 131.752 162.786V181.843C131.752 188.782 136.664 194.409 142.721 194.409H169.02H204.665H329.172C335.228 194.409 340.14 188.782 340.14 181.843V52.5681C340.139 45.6287 335.228 40.0037 329.172 40.0037Z" fill="#00388B" fill-opacity="0.52"/>
<path d="M361.41 54.7141L363.334 45.96C363.658 44.4647 362.761 43.2545 361.32 43.2545H317.015C315.578 43.2545 314.984 44.234 313.816 45.96L308.163 54.5378H173.321C167.263 54.5378 161.236 59.6341 159.857 65.9193L134.162 183.027C132.786 189.311 136.578 194.409 142.634 194.409H168.93H204.573H329.086C335.142 194.409 341.173 189.311 342.55 183.027L368.245 65.9193C369.492 60.2315 366.48 55.5575 361.41 54.7141Z" fill="#65BAE1"/>
<path d="M361.015 54.6691H361.422L363.334 45.9588C363.658 44.4635 362.761 43.2533 361.32 43.2533H337.072C335.588 47.0258 333.466 50.4103 331.164 54.5366C297.057 110.057 235.319 150.003 174.677 150.003C163.26 150.003 152.446 148.545 142.315 145.878L134.163 183.026C132.787 189.31 136.579 194.408 142.636 194.408H168.93H204.573H329.086C335.142 194.408 341.173 189.31 342.55 183.026L368.246 65.918C369.523 60.0848 366.315 55.3315 361.015 54.6691Z" fill="#56B7E1"/>
<path d="M275.261 63.4952H181.563C175.507 63.4952 169.481 68.5939 168.1 74.8779L157.626 122.622C189.745 89.4002 232.342 66.836 275.261 63.4952Z" fill="#91C4E3"/>
<path d="M360.993 54.6679L361.421 54.6703L363.333 45.96C363.657 44.4647 362.76 43.2545 361.319 43.2545H349.338C349.322 43.4024 349.322 43.5467 349.3 43.6981C349.033 45.2372 346.125 54.106 345.768 54.5378C315.822 121.228 246.021 172.058 177.606 172.058C163.402 172.058 150.124 169.831 137.949 165.765L134.162 183.028C132.786 189.312 136.578 194.41 142.634 194.41H168.93H204.573H329.086C335.142 194.41 341.173 189.312 342.55 183.028L368.245 65.9204C369.523 60.0777 366.31 55.3209 360.993 54.6679Z" fill="#00388B"/>
<path d="M158.539 405.758C158.539 410.355 136.41 414.085 109.114 414.085C81.8186 414.085 59.6921 410.355 59.6921 405.758C59.6921 404.466 59.6921 385.664 59.6921 385.664H158.54C158.54 385.664 158.539 401.156 158.539 405.758Z" fill="#8AA3B6"/>
<path d="M141.676 385.664C141.676 390.112 141.676 395.134 141.676 397.434C141.676 402.034 119.551 405.761 92.2584 405.761C79.778 405.761 68.3906 404.978 59.6921 403.693C59.6921 404.779 59.6921 405.532 59.6921 405.758C59.6921 410.355 81.8186 414.085 109.114 414.085C136.41 414.085 158.539 410.355 158.539 405.758C158.539 401.156 158.539 385.664 158.539 385.664H141.676Z" fill="#809EB2"/>
<path d="M150.53 385.664C150.53 390.588 150.53 398.553 150.53 401.635C150.53 406.233 128.403 409.967 101.106 409.967C83.8072 409.967 68.587 408.467 59.7607 406.198C61.1176 410.59 82.694 414.086 109.114 414.086C136.41 414.086 158.538 410.356 158.538 405.759C158.538 401.157 158.538 385.665 158.538 385.665L150.53 385.664Z" fill="#7094A9"/>
<path d="M158.539 385.664C158.539 390.265 136.41 393.994 109.114 393.994C81.8186 393.994 59.6921 390.265 59.6921 385.664C59.6921 381.062 81.8186 377.333 109.114 377.333C136.41 377.333 158.539 381.062 158.539 385.664Z" fill="#A0B0C1"/>
<path opacity="0.1" d="M129.307 383.687C129.307 386.014 115.868 387.896 99.2912 387.896C82.7152 387.896 69.2754 386.014 69.2754 383.687C69.2754 381.367 82.7152 379.481 99.2912 379.481C115.867 379.481 129.307 381.366 129.307 383.687Z" fill="white"/>
<path opacity="0.2" d="M105.795 383.687C105.795 385.253 99.7325 386.522 92.2584 386.522C84.7772 386.522 78.7168 385.253 78.7168 383.687C78.7168 382.124 84.7772 380.856 92.2584 380.856C99.7325 380.856 105.795 382.124 105.795 383.687Z" fill="white"/>
<path d="M107.445 377.339C106.582 377.339 105.717 377.343 104.859 377.351C127.127 377.551 144.784 380.377 144.784 383.832C144.784 387.422 125.786 390.328 102.35 390.328C80.4711 390.328 62.4614 387.793 60.1699 384.537C60.0067 384.807 59.918 385.086 59.918 385.366C59.918 389.798 81.1939 393.39 107.445 393.39C133.693 393.39 154.973 389.798 154.973 385.366C154.973 380.933 133.693 377.339 107.445 377.339Z" fill="#86A1B4"/>
<path d="M155.194 380.705C155.194 384.993 134.562 388.472 109.112 388.472C83.6628 388.472 63.0352 384.993 63.0352 380.705C63.0352 379.5 63.0352 361.971 63.0352 361.971H155.194C155.194 361.971 155.194 376.418 155.194 380.705Z" fill="#4C8FBE"/>
<path d="M139.475 361.971C139.475 366.117 139.475 370.8 139.475 372.945C139.475 377.236 118.846 380.708 93.3928 380.708C81.7641 380.708 71.1421 379.981 63.0352 378.783C63.0352 379.794 63.0352 380.499 63.0352 380.706C63.0352 384.994 83.664 388.473 109.112 388.473C134.561 388.473 155.194 384.994 155.194 380.706C155.194 376.419 155.194 361.972 155.194 361.972H139.475V361.971Z" fill="#2F8BBE"/>
<path d="M147.728 361.971C147.728 366.562 147.728 373.991 147.728 376.864C147.728 381.151 127.098 384.626 101.643 384.626C85.5165 384.626 71.3314 383.23 63.0955 381.115C64.3636 385.212 84.479 388.473 109.112 388.473C134.562 388.473 155.194 384.994 155.194 380.706C155.194 376.419 155.194 361.972 155.194 361.972H147.728V361.971Z" fill="#087EAE"/>
<path d="M155.194 361.971C155.194 366.259 134.562 369.736 109.112 369.736C83.6628 369.736 63.0352 366.259 63.0352 361.971C63.0352 357.684 83.664 354.206 109.112 354.206C134.561 354.206 155.194 357.684 155.194 361.971Z" fill="#A0B0C1"/>
<path opacity="0.1" d="M127.941 360.129C127.941 362.297 115.41 364.054 99.9547 364.054C84.4991 364.054 71.9678 362.297 71.9678 360.129C71.9678 357.963 84.4991 356.209 99.9547 356.209C115.412 356.209 127.941 357.963 127.941 360.129Z" fill="white"/>
<path opacity="0.2" d="M106.019 360.129C106.019 361.589 100.365 362.772 93.3929 362.772C86.4239 362.772 80.7693 361.589 80.7693 360.129C80.7693 358.67 86.4239 357.489 93.3929 357.489C100.365 357.489 106.019 358.669 106.019 360.129Z" fill="white"/>
<path d="M107.56 354.211C106.747 354.211 105.948 354.214 105.148 354.222C125.912 354.407 142.373 357.041 142.373 360.266C142.373 363.609 124.658 366.32 102.809 366.32C82.4088 366.32 65.6164 363.956 63.4847 360.92C63.3285 361.174 63.2493 361.43 63.2493 361.693C63.2493 365.824 83.0867 369.178 107.561 369.178C132.031 369.178 151.87 365.824 151.87 361.693C151.869 357.561 132.029 354.211 107.56 354.211Z" fill="#86A1B4"/>
<path d="M158.539 371.49C158.539 376.092 136.41 379.819 109.114 379.819C81.8186 379.819 59.6921 376.091 59.6921 371.49C59.6921 370.2 59.6921 351.4 59.6921 351.4H158.54C158.54 351.4 158.539 366.892 158.539 371.49Z" fill="#8AA3B6"/>
<path d="M141.676 351.399C141.676 355.846 141.676 360.866 141.676 363.167C141.676 367.769 119.551 371.498 92.2584 371.498C79.778 371.498 68.3906 370.714 59.6921 369.431C59.6921 370.511 59.6921 371.268 59.6921 371.49C59.6921 376.092 81.8186 379.819 109.114 379.819C136.41 379.819 158.539 376.091 158.539 371.49C158.539 366.892 158.539 351.4 158.539 351.4L141.676 351.399Z" fill="#809EB2"/>
<path d="M150.53 351.399C150.53 356.323 150.53 364.287 150.53 367.371C150.53 371.97 128.403 375.698 101.106 375.698C83.8072 375.698 68.587 374.199 59.7607 371.93C61.1176 376.326 82.694 379.819 109.114 379.819C136.41 379.819 158.538 376.091 158.538 371.49C158.538 366.892 158.538 351.4 158.538 351.4L150.53 351.399Z" fill="#7094A9"/>
<path d="M158.539 351.399C158.539 355.997 136.41 359.727 109.114 359.727C81.8186 359.727 59.6921 355.997 59.6921 351.399C59.6921 346.797 81.8186 343.07 109.114 343.07C136.41 343.07 158.539 346.798 158.539 351.399Z" fill="#A0B0C1"/>
<path opacity="0.1" d="M129.307 349.423C129.307 351.746 115.868 353.632 99.2912 353.632C82.7152 353.632 69.2754 351.746 69.2754 349.423C69.2754 347.098 82.7152 345.218 99.2912 345.218C115.867 345.218 129.307 347.098 129.307 349.423Z" fill="white"/>
<path opacity="0.2" d="M105.795 349.423C105.795 350.988 99.7325 352.257 92.2584 352.257C84.7772 352.257 78.7168 350.989 78.7168 349.423C78.7168 347.859 84.7772 346.59 92.2584 346.59C99.7325 346.59 105.795 347.859 105.795 349.423Z" fill="white"/>
<path d="M107.445 343.075C106.582 343.075 105.717 343.08 104.859 343.087C127.127 343.289 144.784 346.113 144.784 349.569C144.784 353.157 125.786 356.062 102.35 356.062C80.4711 356.062 62.4614 353.528 60.1699 350.275C60.0067 350.546 59.918 350.823 59.918 351.105C59.918 355.536 81.1939 359.131 107.445 359.131C133.693 359.131 154.973 355.534 154.973 351.105C154.973 346.669 133.693 343.075 107.445 343.075Z" fill="#86A1B4"/>
<path d="M155.194 346.44C155.194 350.728 134.562 354.206 109.112 354.206C83.6628 354.206 63.0352 350.729 63.0352 346.44C63.0352 345.235 63.0352 327.706 63.0352 327.706H155.194C155.194 327.706 155.194 342.15 155.194 346.44Z" fill="#4C8FBE"/>
<path d="M139.475 327.706C139.475 331.853 139.475 336.535 139.475 338.682C139.475 342.969 118.846 346.447 93.3928 346.447C81.7641 346.447 71.1421 345.718 63.0352 344.522C63.0352 345.529 63.0352 346.237 63.0352 346.441C63.0352 350.729 83.664 354.207 109.112 354.207C134.561 354.207 155.194 350.73 155.194 346.441C155.194 342.151 155.194 327.707 155.194 327.707H139.475V327.706Z" fill="#2F8BBE"/>
<path d="M147.728 327.706C147.728 332.301 147.728 339.727 147.728 342.598C147.728 346.887 127.098 350.365 101.643 350.365C85.5165 350.365 71.3314 348.965 63.0955 346.849C64.3636 350.948 84.479 354.205 109.112 354.205C134.562 354.205 155.194 350.728 155.194 346.438C155.194 342.149 155.194 327.705 155.194 327.705H147.728V327.706Z" fill="#087EAE"/>
<path d="M155.194 327.706C155.194 331.995 134.562 335.471 109.112 335.471C83.6628 335.471 63.0352 331.995 63.0352 327.706C63.0352 323.419 83.664 319.941 109.112 319.941C134.561 319.941 155.194 323.419 155.194 327.706Z" fill="#A0B0C1"/>
<path opacity="0.1" d="M127.941 325.865C127.941 328.032 115.41 329.789 99.9547 329.789C84.4991 329.789 71.9678 328.032 71.9678 325.865C71.9678 323.698 84.4991 321.941 99.9547 321.941C115.412 321.941 127.941 323.697 127.941 325.865Z" fill="white"/>
<path opacity="0.2" d="M106.019 325.865C106.019 327.327 100.365 328.508 93.3929 328.508C86.4239 328.508 80.7693 327.326 80.7693 325.865C80.7693 324.405 86.4239 323.225 93.3929 323.225C100.365 323.224 106.019 324.404 106.019 325.865Z" fill="white"/>
<path d="M107.56 319.946C106.747 319.946 105.948 319.95 105.148 319.957C125.912 320.142 142.373 322.779 142.373 325.998C142.373 329.346 124.658 332.058 102.809 332.058C82.4088 332.058 65.6164 329.692 63.4847 326.653C63.3285 326.907 63.2493 327.169 63.2493 327.428C63.2493 331.564 83.0867 334.91 107.561 334.91C132.031 334.91 151.87 331.564 151.87 327.428C151.869 323.295 132.029 319.946 107.56 319.946Z" fill="#86A1B4"/>
<path d="M158.539 338.664C158.539 343.264 136.41 346.992 109.114 346.992C81.8186 346.992 59.6921 343.263 59.6921 338.664C59.6921 337.372 59.6921 318.574 59.6921 318.574H158.54C158.54 318.574 158.539 334.063 158.539 338.664Z" fill="#8AA3B6"/>
<path d="M141.676 318.574C141.676 323.019 141.676 328.042 141.676 330.342C141.676 334.94 119.551 338.67 92.2584 338.67C79.778 338.67 68.3906 337.888 59.6921 336.602C59.6921 337.684 59.6921 338.441 59.6921 338.664C59.6921 343.264 81.8186 346.992 109.114 346.992C136.41 346.992 158.539 343.263 158.539 338.664C158.539 334.063 158.539 318.574 158.539 318.574H141.676Z" fill="#809EB2"/>
<path d="M150.53 318.574C150.53 323.498 150.53 331.462 150.53 334.542C150.53 339.145 128.403 342.872 101.106 342.872C83.8072 342.872 68.587 341.374 59.7607 339.103C61.1176 343.5 82.694 346.993 109.114 346.993C136.41 346.993 158.538 343.264 158.538 338.665C158.538 334.064 158.538 318.576 158.538 318.576H150.53V318.574Z" fill="#7094A9"/>
<path d="M158.539 318.574C158.539 323.174 136.41 326.9 109.114 326.9C81.8186 326.9 59.6921 323.175 59.6921 318.574C59.6921 313.973 81.8186 310.243 109.114 310.243C136.41 310.243 158.539 313.974 158.539 318.574Z" fill="#A0B0C1"/>
<path opacity="0.1" d="M129.307 316.596C129.307 318.92 115.868 320.803 99.2912 320.803C82.7152 320.803 69.2754 318.92 69.2754 316.596C69.2754 314.274 82.7152 312.389 99.2912 312.389C115.867 312.39 129.307 314.275 129.307 316.596Z" fill="white"/>
<path opacity="0.2" d="M105.795 316.596C105.795 318.162 99.7325 319.431 92.2584 319.431C84.7772 319.431 78.7168 318.163 78.7168 316.596C78.7168 315.033 84.7772 313.763 92.2584 313.763C99.7325 313.764 105.795 315.033 105.795 316.596Z" fill="white"/>
<path d="M107.445 310.247C106.582 310.247 105.717 310.251 104.859 310.259C127.127 310.458 144.784 313.283 144.784 316.741C144.784 320.329 125.786 323.237 102.35 323.237C80.4711 323.237 62.4614 320.7 60.1699 317.445C60.0067 317.716 59.918 317.995 59.918 318.275C59.918 322.707 81.1939 326.298 107.445 326.298C133.693 326.298 154.973 322.707 154.973 318.275C154.973 313.839 133.693 310.247 107.445 310.247Z" fill="#86A1B4"/>
<path d="M155.194 315.728C155.194 320.018 134.562 323.493 109.112 323.493C83.6628 323.493 63.0352 320.017 63.0352 315.728C63.0352 314.522 63.0352 296.995 63.0352 296.995H155.194C155.194 296.995 155.194 311.435 155.194 315.728Z" fill="#4C8FBE"/>
<path d="M139.475 296.995C139.475 301.143 139.475 305.823 139.475 307.967C139.475 312.255 118.846 315.734 93.3928 315.734C81.7641 315.734 71.1421 315.004 63.0352 313.806C63.0352 314.815 63.0352 315.518 63.0352 315.728C63.0352 320.018 83.664 323.493 109.112 323.493C134.561 323.493 155.194 320.017 155.194 315.728C155.194 311.435 155.194 296.995 155.194 296.995H139.475Z" fill="#2F8BBE"/>
<path d="M147.728 296.995C147.728 301.586 147.728 309.011 147.728 311.884C147.728 316.171 127.098 319.649 101.643 319.649C85.5165 319.649 71.3314 318.253 63.0955 316.136C64.3636 320.234 84.479 323.493 109.112 323.493C134.562 323.493 155.194 320.017 155.194 315.728C155.194 311.435 155.194 296.995 155.194 296.995H147.728Z" fill="#087EAE"/>
<path d="M155.194 296.994C155.194 301.284 134.562 304.76 109.112 304.76C83.6628 304.76 63.0352 301.283 63.0352 296.994C63.0352 292.706 83.664 289.229 109.112 289.229C134.561 289.229 155.194 292.705 155.194 296.994Z" fill="#A0B0C1"/>
<path opacity="0.1" d="M127.941 295.149C127.941 297.317 115.41 299.076 99.9547 299.076C84.4991 299.076 71.9678 297.317 71.9678 295.149C71.9678 292.985 84.4991 291.23 99.9547 291.23C115.412 291.23 127.941 292.985 127.941 295.149Z" fill="white"/>
<path opacity="0.2" d="M106.019 295.149C106.019 296.612 100.365 297.792 93.3929 297.792C86.4239 297.792 80.7693 296.611 80.7693 295.149C80.7693 293.69 86.4239 292.511 93.3929 292.511C100.365 292.511 106.019 293.69 106.019 295.149Z" fill="white"/>
<path d="M107.56 289.233C106.747 289.233 105.948 289.236 105.148 289.247C125.912 289.432 142.373 292.066 142.373 295.287C142.373 298.631 124.658 301.344 102.809 301.344C82.4088 301.344 65.6164 298.977 63.4847 295.944C63.3285 296.196 63.2493 296.456 63.2493 296.715C63.2493 300.85 83.0867 304.2 107.561 304.2C132.031 304.2 151.87 300.849 151.87 296.715C151.869 292.581 132.029 289.233 107.56 289.233Z" fill="#86A1B4"/>
<path d="M158.539 307.95C158.539 312.55 136.41 316.279 109.114 316.279C81.8186 316.279 59.6921 312.55 59.6921 307.95C59.6921 306.661 59.6921 287.861 59.6921 287.861H158.54C158.54 287.861 158.539 303.351 158.539 307.95Z" fill="#8AA3B6"/>
<path d="M141.676 287.861C141.676 292.308 141.676 297.327 141.676 299.628C141.676 304.23 119.551 307.956 92.2584 307.956C79.778 307.956 68.3906 307.173 59.6921 305.892C59.6921 306.974 59.6921 307.728 59.6921 307.951C59.6921 312.551 81.8186 316.281 109.114 316.281C136.41 316.281 158.539 312.551 158.539 307.951C158.539 303.351 158.539 287.862 158.539 287.862L141.676 287.861Z" fill="#809EB2"/>
<path d="M150.53 287.861C150.53 292.784 150.53 300.749 150.53 303.832C150.53 308.428 128.403 312.16 101.106 312.16C83.8072 312.16 68.587 310.658 59.7607 308.391C61.1176 312.784 82.694 316.279 109.114 316.279C136.41 316.279 158.538 312.55 158.538 307.95C158.538 303.349 158.538 287.861 158.538 287.861H150.53Z" fill="#7094A9"/>
<path d="M158.539 287.861C158.539 292.459 136.41 296.186 109.114 296.186C81.8186 296.186 59.6921 292.459 59.6921 287.861C59.6921 283.258 81.8186 279.532 109.114 279.532C136.41 279.532 158.539 283.258 158.539 287.861Z" fill="#A0B0C1"/>
<path opacity="0.1" d="M129.307 285.885C129.307 288.207 115.868 290.089 99.2912 290.089C82.7152 290.089 69.2754 288.207 69.2754 285.885C69.2754 283.559 82.7152 281.675 99.2912 281.675C115.867 281.676 129.307 283.559 129.307 285.885Z" fill="white"/>
<path opacity="0.2" d="M105.795 285.885C105.795 287.448 99.7325 288.718 92.2584 288.718C84.7772 288.718 78.7168 287.449 78.7168 285.885C78.7168 284.318 84.7772 283.051 92.2584 283.051C99.7325 283.051 105.795 284.319 105.795 285.885Z" fill="white"/>
<path d="M107.445 279.536C106.582 279.536 105.717 279.54 104.859 279.545C127.127 279.744 144.784 282.572 144.784 286.026C144.784 289.615 125.786 292.522 102.35 292.522C80.4711 292.522 62.4614 289.986 60.1699 286.732C60.0067 287.003 59.918 287.282 59.918 287.559C59.918 291.992 81.1939 295.588 107.445 295.588C133.693 295.588 154.973 291.992 154.973 287.559C154.973 283.129 133.693 279.536 107.445 279.536Z" fill="#86A1B4"/>
<path d="M440.59 405.758C440.59 410.355 418.461 414.085 391.165 414.085C363.87 414.085 341.743 410.355 341.743 405.758C341.743 404.466 341.743 385.664 341.743 385.664H440.591C440.591 385.664 440.59 401.156 440.59 405.758Z" fill="#8AA3B6"/>
<path d="M423.727 385.664C423.727 390.112 423.727 395.134 423.727 397.434C423.727 402.034 401.602 405.761 374.306 405.761C361.829 405.761 350.439 404.978 341.743 403.693C341.743 404.779 341.743 405.532 341.743 405.758C341.743 410.355 363.87 414.085 391.165 414.085C418.461 414.085 440.59 410.355 440.59 405.758C440.59 401.156 440.59 385.664 440.59 385.664H423.727Z" fill="#809EB2"/>
<path d="M432.581 385.664C432.581 390.588 432.581 398.553 432.581 401.635C432.581 406.233 410.453 409.967 383.159 409.967C365.858 409.967 350.642 408.467 341.813 406.198C343.169 410.59 364.746 414.086 391.166 414.086C418.462 414.086 440.591 410.356 440.591 405.759C440.591 401.157 440.591 385.665 440.591 385.665L432.581 385.664Z" fill="#7094A9"/>
<path d="M440.59 385.664C440.59 390.265 418.461 393.994 391.165 393.994C363.87 393.994 341.743 390.265 341.743 385.664C341.743 381.062 363.87 377.333 391.165 377.333C418.461 377.333 440.59 381.062 440.59 385.664Z" fill="#A0B0C1"/>
<path opacity="0.1" d="M411.356 383.687C411.356 386.014 397.919 387.896 381.345 387.896C364.763 387.896 351.326 386.014 351.326 383.687C351.326 381.367 364.763 379.481 381.345 379.481C397.918 379.481 411.356 381.366 411.356 383.687Z" fill="white"/>
<path opacity="0.2" d="M387.846 383.687C387.846 385.253 381.785 386.522 374.306 386.522C366.828 386.522 360.767 385.253 360.767 383.687C360.767 382.124 366.828 380.856 374.306 380.856C381.786 380.856 387.846 382.124 387.846 383.687Z" fill="white"/>
<path d="M389.5 377.339C388.628 377.339 387.768 377.342 386.912 377.351C409.179 377.551 426.837 380.377 426.837 383.832C426.837 387.421 407.84 390.328 384.404 390.328C362.523 390.328 344.515 387.793 342.225 384.537C342.058 384.807 341.973 385.086 341.973 385.365C341.973 389.798 363.25 393.39 389.501 393.39C415.747 393.39 437.024 389.798 437.024 385.365C437.024 380.933 415.746 377.339 389.5 377.339Z" fill="#86A1B4"/>
<path d="M437.245 380.705C437.245 384.993 416.614 388.472 391.164 388.472C365.715 388.472 345.086 384.993 345.086 380.705C345.086 379.5 345.086 361.971 345.086 361.971H437.245C437.245 361.971 437.245 376.418 437.245 380.705Z" fill="#4C8FBE"/>
<path d="M421.523 361.971C421.523 366.117 421.523 370.8 421.523 372.945C421.523 377.236 400.896 380.708 375.445 380.708C363.813 380.708 353.193 379.981 345.086 378.783C345.086 379.794 345.086 380.499 345.086 380.706C345.086 384.994 365.715 388.473 391.164 388.473C416.615 388.473 437.245 384.994 437.245 380.706C437.245 376.419 437.245 361.972 437.245 361.972H421.523V361.971Z" fill="#2F8BBE"/>
<path d="M429.781 361.971C429.781 366.562 429.781 373.991 429.781 376.864C429.781 381.151 409.149 384.626 383.699 384.626C367.568 384.626 353.382 383.23 345.149 381.115C346.417 385.212 366.533 388.473 391.165 388.473C416.615 388.473 437.245 384.994 437.245 380.706C437.245 376.419 437.245 361.972 437.245 361.972H429.781V361.971Z" fill="#087EAE"/>
<path d="M437.245 361.971C437.245 366.259 416.614 369.736 391.164 369.736C365.715 369.736 345.086 366.259 345.086 361.971C345.086 357.684 365.715 354.206 391.164 354.206C416.615 354.206 437.245 357.684 437.245 361.971Z" fill="#A0B0C1"/>
<path opacity="0.1" d="M409.992 360.129C409.992 362.297 397.461 364.054 382.006 364.054C366.55 364.054 354.02 362.297 354.02 360.129C354.02 357.963 366.551 356.209 382.006 356.209C397.461 356.209 409.992 357.963 409.992 360.129Z" fill="white"/>
<path opacity="0.2" d="M388.072 360.129C388.072 361.589 382.417 362.772 375.445 362.772C368.475 362.772 362.821 361.589 362.821 360.129C362.821 358.67 368.475 357.489 375.445 357.489C382.417 357.489 388.072 358.669 388.072 360.129Z" fill="white"/>
<path d="M389.614 354.211C388.802 354.211 388 354.214 387.2 354.222C407.963 354.407 424.424 357.041 424.424 360.266C424.424 363.609 406.715 366.32 384.864 366.32C364.461 366.32 347.672 363.956 345.536 360.92C345.381 361.174 345.298 361.43 345.298 361.693C345.298 365.824 365.14 369.178 389.615 369.178C414.085 369.178 433.922 365.824 433.922 361.693C433.921 357.561 414.082 354.211 389.614 354.211Z" fill="#86A1B4"/>
<path d="M440.59 371.49C440.59 376.092 418.461 379.819 391.165 379.819C363.87 379.819 341.743 376.091 341.743 371.49C341.743 370.2 341.743 351.4 341.743 351.4H440.591C440.591 351.4 440.59 366.892 440.59 371.49Z" fill="#8AA3B6"/>
<path d="M423.727 351.399C423.727 355.846 423.727 360.866 423.727 363.167C423.727 367.769 401.602 371.498 374.306 371.498C361.829 371.498 350.439 370.714 341.743 369.431C341.743 370.511 341.743 371.268 341.743 371.49C341.743 376.092 363.87 379.819 391.165 379.819C418.461 379.819 440.59 376.091 440.59 371.49C440.59 366.892 440.59 351.4 440.59 351.4L423.727 351.399Z" fill="#809EB2"/>
<path d="M432.581 351.399C432.581 356.323 432.581 364.287 432.581 367.371C432.581 371.97 410.453 375.698 383.159 375.698C365.858 375.698 350.642 374.199 341.813 371.93C343.169 376.326 364.746 379.819 391.166 379.819C418.462 379.819 440.591 376.091 440.591 371.49C440.591 366.892 440.591 351.4 440.591 351.4L432.581 351.399Z" fill="#7094A9"/>
<path d="M440.59 351.399C440.59 355.997 418.461 359.727 391.165 359.727C363.87 359.727 341.743 355.997 341.743 351.399C341.743 346.797 363.87 343.07 391.165 343.07C418.461 343.07 440.59 346.798 440.59 351.399Z" fill="#A0B0C1"/>
<path opacity="0.1" d="M411.356 349.423C411.356 351.746 397.919 353.632 381.345 353.632C364.763 353.632 351.326 351.746 351.326 349.423C351.326 347.098 364.763 345.218 381.345 345.218C397.918 345.218 411.356 347.098 411.356 349.423Z" fill="white"/>
<path opacity="0.2" d="M387.846 349.423C387.846 350.988 381.785 352.257 374.306 352.257C366.828 352.257 360.767 350.989 360.767 349.423C360.767 347.859 366.828 346.59 374.306 346.59C381.786 346.59 387.846 347.859 387.846 349.423Z" fill="white"/>
<path d="M389.5 343.075C388.628 343.075 387.768 343.08 386.912 343.087C409.179 343.289 426.837 346.113 426.837 349.569C426.837 353.157 407.84 356.062 384.404 356.062C362.523 356.062 344.515 353.528 342.225 350.275C342.058 350.546 341.973 350.823 341.973 351.105C341.973 355.536 363.25 359.131 389.501 359.131C415.747 359.131 437.024 355.534 437.024 351.105C437.023 346.669 415.746 343.075 389.5 343.075Z" fill="#86A1B4"/>
<path d="M437.245 346.44C437.245 350.728 416.614 354.206 391.164 354.206C365.715 354.206 345.086 350.729 345.086 346.44C345.086 345.235 345.086 327.706 345.086 327.706H437.245C437.245 327.706 437.245 342.15 437.245 346.44Z" fill="#4C8FBE"/>
<path d="M421.523 327.706C421.523 331.853 421.523 336.535 421.523 338.682C421.523 342.969 400.896 346.447 375.445 346.447C363.813 346.447 353.193 345.718 345.086 344.522C345.086 345.529 345.086 346.237 345.086 346.441C345.086 350.729 365.715 354.207 391.164 354.207C416.615 354.207 437.245 350.73 437.245 346.441C437.245 342.151 437.245 327.707 437.245 327.707H421.523V327.706Z" fill="#2F8BBE"/>
<path d="M429.781 327.706C429.781 332.301 429.781 339.727 429.781 342.598C429.781 346.887 409.149 350.365 383.699 350.365C367.568 350.365 353.382 348.965 345.149 346.849C346.417 350.948 366.533 354.205 391.165 354.205C416.615 354.205 437.245 350.728 437.245 346.438C437.245 342.149 437.245 327.705 437.245 327.705H429.781V327.706Z" fill="#087EAE"/>
<path d="M437.245 327.706C437.245 331.995 416.614 335.471 391.164 335.471C365.715 335.471 345.086 331.995 345.086 327.706C345.086 323.419 365.715 319.941 391.164 319.941C416.615 319.941 437.245 323.419 437.245 327.706Z" fill="#A0B0C1"/>
<path opacity="0.1" d="M409.992 325.865C409.992 328.032 397.461 329.789 382.006 329.789C366.55 329.789 354.02 328.032 354.02 325.865C354.02 323.698 366.551 321.941 382.006 321.941C397.461 321.941 409.992 323.697 409.992 325.865Z" fill="white"/>
<path opacity="0.2" d="M388.072 325.865C388.072 327.327 382.417 328.508 375.445 328.508C368.475 328.508 362.821 327.326 362.821 325.865C362.821 324.405 368.475 323.225 375.445 323.225C382.417 323.224 388.072 324.404 388.072 325.865Z" fill="white"/>
<path d="M389.614 319.946C388.802 319.946 388 319.95 387.2 319.957C407.963 320.142 424.424 322.779 424.424 325.998C424.424 329.346 406.715 332.058 384.864 332.058C364.461 332.058 347.672 329.692 345.536 326.653C345.381 326.907 345.298 327.169 345.298 327.428C345.298 331.564 365.14 334.91 389.615 334.91C414.085 334.91 433.922 331.564 433.922 327.428C433.921 323.295 414.082 319.946 389.614 319.946Z" fill="#86A1B4"/>
<path d="M440.59 338.664C440.59 343.264 418.461 346.992 391.165 346.992C363.87 346.992 341.743 343.263 341.743 338.664C341.743 337.372 341.743 318.574 341.743 318.574H440.591C440.591 318.574 440.59 334.063 440.59 338.664Z" fill="#8AA3B6"/>
<path d="M423.727 318.574C423.727 323.019 423.727 328.042 423.727 330.342C423.727 334.94 401.602 338.67 374.306 338.67C361.829 338.67 350.439 337.888 341.743 336.602C341.743 337.684 341.743 338.441 341.743 338.664C341.743 343.264 363.87 346.992 391.165 346.992C418.461 346.992 440.59 343.263 440.59 338.664C440.59 334.063 440.59 318.574 440.59 318.574H423.727Z" fill="#809EB2"/>
<path d="M432.581 318.574C432.581 323.498 432.581 331.462 432.581 334.542C432.581 339.145 410.453 342.872 383.159 342.872C365.858 342.872 350.642 341.374 341.813 339.103C343.169 343.5 364.746 346.993 391.166 346.993C418.462 346.993 440.591 343.264 440.591 338.665C440.591 334.064 440.591 318.576 440.591 318.576H432.581V318.574Z" fill="#7094A9"/>
<path d="M440.59 318.574C440.59 323.174 418.461 326.9 391.165 326.9C363.87 326.9 341.743 323.175 341.743 318.574C341.743 313.973 363.87 310.243 391.165 310.243C418.461 310.243 440.59 313.974 440.59 318.574Z" fill="#A0B0C1"/>
<path opacity="0.1" d="M411.356 316.596C411.356 318.92 397.919 320.803 381.345 320.803C364.763 320.803 351.326 318.92 351.326 316.596C351.326 314.274 364.763 312.389 381.345 312.389C397.918 312.39 411.356 314.275 411.356 316.596Z" fill="white"/>
<path opacity="0.2" d="M387.846 316.596C387.846 318.162 381.785 319.431 374.306 319.431C366.828 319.431 360.767 318.163 360.767 316.596C360.767 315.033 366.828 313.763 374.306 313.763C381.786 313.764 387.846 315.033 387.846 316.596Z" fill="white"/>
<path d="M389.5 310.247C388.628 310.247 387.768 310.251 386.912 310.259C409.179 310.458 426.837 313.283 426.837 316.741C426.837 320.329 407.84 323.237 384.404 323.237C362.523 323.237 344.515 320.7 342.225 317.445C342.058 317.716 341.973 317.995 341.973 318.275C341.973 322.707 363.25 326.298 389.501 326.298C415.747 326.298 437.024 322.707 437.024 318.275C437.023 313.839 415.746 310.247 389.5 310.247Z" fill="#86A1B4"/>
<path d="M437.245 315.728C437.245 320.018 416.614 323.493 391.164 323.493C365.715 323.493 345.086 320.017 345.086 315.728C345.086 314.522 345.086 296.995 345.086 296.995H437.245C437.245 296.995 437.245 311.435 437.245 315.728Z" fill="#4C8FBE"/>
<path d="M421.523 296.995C421.523 301.143 421.523 305.823 421.523 307.967C421.523 312.255 400.896 315.734 375.445 315.734C363.813 315.734 353.193 315.004 345.086 313.806C345.086 314.815 345.086 315.518 345.086 315.728C345.086 320.018 365.715 323.493 391.164 323.493C416.615 323.493 437.245 320.017 437.245 315.728C437.245 311.435 437.245 296.995 437.245 296.995H421.523Z" fill="#2F8BBE"/>
<path d="M429.781 296.995C429.781 301.586 429.781 309.011 429.781 311.884C429.781 316.171 409.149 319.649 383.699 319.649C367.568 319.649 353.382 318.253 345.149 316.136C346.417 320.234 366.533 323.493 391.165 323.493C416.615 323.493 437.245 320.017 437.245 315.728C437.245 311.435 437.245 296.995 437.245 296.995H429.781Z" fill="#087EAE"/>
<path d="M437.245 296.994C437.245 301.284 416.614 304.76 391.164 304.76C365.715 304.76 345.086 301.283 345.086 296.994C345.086 292.706 365.715 289.229 391.164 289.229C416.615 289.228 437.245 292.705 437.245 296.994Z" fill="#A0B0C1"/>
<path opacity="0.1" d="M409.992 295.149C409.992 297.317 397.461 299.076 382.006 299.076C366.55 299.076 354.02 297.317 354.02 295.149C354.02 292.985 366.551 291.23 382.006 291.23C397.461 291.23 409.992 292.985 409.992 295.149Z" fill="white"/>
<path opacity="0.2" d="M388.072 295.149C388.072 296.612 382.417 297.792 375.445 297.792C368.475 297.792 362.821 296.611 362.821 295.149C362.821 293.69 368.475 292.511 375.445 292.511C382.417 292.511 388.072 293.69 388.072 295.149Z" fill="white"/>
<path d="M389.614 289.233C388.802 289.233 388 289.236 387.2 289.247C407.963 289.432 424.424 292.066 424.424 295.287C424.424 298.631 406.715 301.344 384.864 301.344C364.461 301.344 347.672 298.977 345.536 295.944C345.381 296.196 345.298 296.456 345.298 296.715C345.298 300.85 365.14 304.2 389.615 304.2C414.085 304.2 433.922 300.849 433.922 296.715C433.921 292.581 414.082 289.233 389.614 289.233Z" fill="#86A1B4"/>
<path d="M440.59 307.95C440.59 312.55 418.461 316.279 391.165 316.279C363.87 316.279 341.743 312.55 341.743 307.95C341.743 306.661 341.743 287.861 341.743 287.861H440.591C440.591 287.861 440.59 303.351 440.59 307.95Z" fill="#8AA3B6"/>
<path d="M423.727 287.861C423.727 292.308 423.727 297.327 423.727 299.628C423.727 304.23 401.602 307.956 374.306 307.956C361.829 307.956 350.439 307.173 341.743 305.892C341.743 306.974 341.743 307.728 341.743 307.951C341.743 312.551 363.87 316.281 391.165 316.281C418.461 316.281 440.59 312.551 440.59 307.951C440.59 303.351 440.59 287.862 440.59 287.862L423.727 287.861Z" fill="#809EB2"/>
<path d="M432.581 287.861C432.581 292.784 432.581 300.749 432.581 303.832C432.581 308.428 410.453 312.16 383.159 312.16C365.858 312.16 350.642 310.658 341.813 308.391C343.169 312.784 364.746 316.279 391.166 316.279C418.462 316.279 440.591 312.55 440.591 307.95C440.591 303.349 440.591 287.861 440.591 287.861H432.581Z" fill="#7094A9"/>
<path d="M440.59 287.861C440.59 292.459 418.461 296.186 391.165 296.186C363.87 296.186 341.743 292.459 341.743 287.861C341.743 283.258 363.87 279.532 391.165 279.532C418.461 279.532 440.59 283.258 440.59 287.861Z" fill="#A0B0C1"/>
<path opacity="0.1" d="M411.356 285.885C411.356 288.207 397.919 290.089 381.345 290.089C364.763 290.089 351.326 288.207 351.326 285.885C351.326 283.559 364.763 281.675 381.345 281.675C397.918 281.676 411.356 283.559 411.356 285.885Z" fill="white"/>
<path opacity="0.2" d="M387.846 285.885C387.846 287.448 381.785 288.718 374.306 288.718C366.828 288.718 360.767 287.449 360.767 285.885C360.767 284.318 366.828 283.051 374.306 283.051C381.786 283.051 387.846 284.319 387.846 285.885Z" fill="white"/>
<path d="M389.5 279.536C388.628 279.536 387.768 279.54 386.912 279.545C409.179 279.744 426.837 282.572 426.837 286.026C426.837 289.615 407.84 292.522 384.404 292.522C362.523 292.522 344.515 289.986 342.225 286.732C342.058 287.003 341.973 287.282 341.973 287.559C341.973 291.992 363.25 295.588 389.501 295.588C415.747 295.588 437.024 291.992 437.024 287.559C437.023 283.129 415.746 279.536 389.5 279.536Z" fill="#86A1B4"/>
<path d="M315.682 449.878C315.682 455.979 286.337 460.924 250.139 460.924C213.943 460.924 184.601 455.978 184.601 449.878C184.601 448.166 184.601 423.233 184.601 423.233H315.683C315.683 423.233 315.682 443.779 315.682 449.878Z" fill="#8AA3B6"/>
<path d="M293.32 423.233C293.32 429.136 293.32 435.792 293.32 438.843C293.32 444.944 263.976 449.885 227.784 449.885C211.239 449.885 196.131 448.849 184.6 447.147C184.6 448.582 184.6 449.585 184.6 449.878C184.6 455.979 213.943 460.924 250.138 460.924C286.337 460.924 315.681 455.978 315.681 449.878C315.681 443.779 315.681 423.233 315.681 423.233H293.32Z" fill="#809EB2"/>
<path d="M305.061 423.233C305.061 429.766 305.061 440.327 305.061 444.414C305.061 450.511 275.717 455.458 239.522 455.458C216.577 455.458 196.396 453.471 184.688 450.463C186.49 456.289 215.101 460.924 250.138 460.924C286.337 460.924 315.681 455.978 315.681 449.878C315.681 443.779 315.681 423.233 315.681 423.233H305.061Z" fill="#7094A9"/>
<path d="M315.682 423.233C315.682 429.335 286.337 434.281 250.139 434.281C213.943 434.281 184.601 429.335 184.601 423.233C184.601 417.133 213.945 412.188 250.139 412.188C286.337 412.188 315.682 417.133 315.682 423.233Z" fill="#A0B0C1"/>
<path opacity="0.1" d="M276.917 420.616C276.917 423.694 259.094 426.196 237.116 426.196C215.128 426.196 197.307 423.694 197.307 420.616C197.307 417.534 215.128 415.035 237.116 415.035C259.094 415.035 276.917 417.536 276.917 420.616Z" fill="white"/>
<path opacity="0.2" d="M245.738 420.616C245.738 422.691 237.699 424.372 227.784 424.372C217.863 424.372 209.827 422.691 209.827 420.616C209.827 418.539 217.863 416.858 227.784 416.858C237.699 416.858 245.738 418.539 245.738 420.616Z" fill="white"/>
<path d="M247.927 412.197C246.779 412.197 245.637 412.202 244.499 412.211C274.027 412.476 297.445 416.225 297.445 420.808C297.445 425.562 272.253 429.42 241.172 429.42C212.156 429.42 188.273 426.058 185.234 421.74C185.017 422.104 184.905 422.471 184.905 422.84C184.905 428.719 213.119 433.483 247.928 433.483C282.74 433.483 310.954 428.719 310.954 422.84C310.953 416.962 282.739 412.197 247.927 412.197Z" fill="#86A1B4"/>
<path d="M311.247 416.661C311.247 422.345 283.887 426.957 250.138 426.957C216.391 426.957 189.03 422.345 189.03 416.661C189.03 415.06 189.03 391.816 189.03 391.816H311.247C311.247 391.816 311.247 410.972 311.247 416.661Z" fill="#4C8FBE"/>
<path d="M290.401 391.816C290.401 397.314 290.401 403.523 290.401 406.367C290.401 412.054 263.042 416.662 229.295 416.662C213.869 416.662 199.789 415.698 189.031 414.111C189.031 415.449 189.031 416.383 189.031 416.661C189.031 422.345 216.392 426.957 250.139 426.957C283.888 426.957 311.248 422.345 311.248 416.661C311.248 410.972 311.248 391.816 311.248 391.816H290.401Z" fill="#2F8BBE"/>
<path d="M301.346 391.816C301.346 397.907 301.346 407.753 301.346 411.564C301.346 417.249 273.987 421.859 240.236 421.859C218.844 421.859 200.034 420.009 189.113 417.201C190.795 422.634 217.473 426.956 250.138 426.956C283.887 426.956 311.247 422.344 311.247 416.66C311.247 410.971 311.247 391.815 311.247 391.815H301.346V391.816Z" fill="#087EAE"/>
<path d="M311.247 391.816C311.247 397.504 283.887 402.114 250.138 402.114C216.391 402.114 189.03 397.504 189.03 391.816C189.03 386.127 216.391 381.515 250.138 381.515C283.888 381.515 311.247 386.127 311.247 391.816Z" fill="#A0B0C1"/>
<path opacity="0.1" d="M275.107 389.375C275.107 392.245 258.49 394.576 237.995 394.576C217.496 394.576 200.881 392.245 200.881 389.375C200.881 386.5 217.496 384.172 237.995 384.172C258.49 384.173 275.107 386.5 275.107 389.375Z" fill="white"/>
<path opacity="0.2" d="M246.036 389.375C246.036 391.31 238.539 392.876 229.294 392.876C220.05 392.876 212.554 391.309 212.554 389.375C212.554 387.437 220.05 385.869 229.294 385.869C238.54 385.869 246.036 387.438 246.036 389.375Z" fill="white"/>
<path d="M248.079 381.527C247.004 381.527 245.939 381.529 244.882 381.541C272.412 381.786 294.247 385.278 294.247 389.553C294.247 393.986 270.758 397.582 241.781 397.582C214.723 397.582 192.457 394.45 189.626 390.423C189.42 390.761 189.314 391.102 189.314 391.446C189.314 396.927 215.622 401.371 248.079 401.371C280.531 401.371 306.838 396.927 306.838 391.446C306.838 385.969 280.531 381.527 248.079 381.527Z" fill="#86A1B4"/>
<path d="M315.682 404.438C315.682 410.541 286.337 415.484 250.139 415.484C213.943 415.484 184.601 410.541 184.601 404.438C184.601 402.725 184.601 377.794 184.601 377.794H315.683C315.683 377.794 315.682 398.34 315.682 404.438Z" fill="#8AA3B6"/>
<path d="M293.32 377.796C293.32 383.692 293.32 390.352 293.32 393.404C293.32 399.5 263.976 404.447 227.784 404.447C211.239 404.447 196.131 403.408 184.6 401.707C184.6 403.14 184.6 404.144 184.6 404.438C184.6 410.541 213.943 415.484 250.138 415.484C286.337 415.484 315.681 410.541 315.681 404.438C315.681 398.339 315.681 377.794 315.681 377.794H293.32V377.796Z" fill="#809EB2"/>
<path d="M305.061 377.796C305.061 384.328 305.061 394.887 305.061 398.975C305.061 405.07 275.717 410.019 239.522 410.019C216.577 410.019 196.396 408.03 184.688 405.021C186.49 410.852 215.101 415.484 250.138 415.484C286.337 415.484 315.681 410.541 315.681 404.438C315.681 398.339 315.681 377.794 315.681 377.794H305.061V377.796Z" fill="#7094A9"/>
<path d="M315.682 377.796C315.682 383.893 286.337 388.839 250.139 388.839C213.943 388.839 184.601 383.893 184.601 377.796C184.601 371.694 213.945 366.75 250.139 366.75C286.337 366.75 315.682 371.694 315.682 377.796Z" fill="#A0B0C1"/>
<path opacity="0.1" d="M276.917 375.176C276.917 378.257 259.094 380.755 237.116 380.755C215.128 380.755 197.307 378.257 197.307 375.176C197.307 372.096 215.128 369.598 237.116 369.598C259.094 369.596 276.917 372.095 276.917 375.176Z" fill="white"/>
<path opacity="0.2" d="M245.738 375.176C245.738 377.251 237.699 378.932 227.784 378.932C217.863 378.932 209.827 377.25 209.827 375.176C209.827 373.102 217.863 371.417 227.784 371.417C237.699 371.417 245.738 373.102 245.738 375.176Z" fill="white"/>
<path d="M247.927 366.756C246.779 366.756 245.637 366.764 244.499 366.771C274.027 367.035 297.445 370.784 297.445 375.369C297.445 380.122 272.253 383.98 241.172 383.98C212.156 383.98 188.273 380.619 185.234 376.3C185.017 376.662 184.905 377.029 184.905 377.403C184.905 383.276 213.119 388.044 247.928 388.044C282.74 388.044 310.954 383.276 310.954 377.403C310.953 371.522 282.739 366.756 247.927 366.756Z" fill="#86A1B4"/>
<path d="M311.247 371.221C311.247 376.905 283.887 381.516 250.138 381.516C216.391 381.516 189.03 376.906 189.03 371.221C189.03 369.621 189.03 346.376 189.03 346.376H311.247C311.247 346.376 311.247 365.531 311.247 371.221Z" fill="#4C8FBE"/>
<path d="M290.401 346.376C290.401 351.878 290.401 358.085 290.401 360.928C290.401 366.614 263.042 371.225 229.295 371.225C213.869 371.225 199.789 370.259 189.031 368.673C189.031 370.008 189.031 370.943 189.031 371.219C189.031 376.904 216.392 381.515 250.139 381.515C283.888 381.515 311.248 376.905 311.248 371.219C311.248 365.529 311.248 346.375 311.248 346.375H290.401V346.376Z" fill="#2F8BBE"/>
<path d="M301.346 346.376C301.346 352.467 301.346 362.314 301.346 366.122C301.346 371.811 273.987 376.421 240.236 376.421C218.844 376.421 200.034 374.565 189.113 371.761C190.795 377.195 217.473 381.514 250.138 381.514C283.887 381.514 311.247 376.904 311.247 371.218C311.247 365.528 311.247 346.373 311.247 346.373H301.346V346.376Z" fill="#087EAE"/>
<path d="M311.247 346.376C311.247 352.065 283.887 356.674 250.138 356.674C216.391 356.674 189.03 352.065 189.03 346.376C189.03 340.69 216.391 336.077 250.138 336.077C283.888 336.077 311.247 340.69 311.247 346.376Z" fill="#A0B0C1"/>
<path opacity="0.1" d="M275.107 343.932C275.107 346.808 258.49 349.136 237.995 349.136C217.496 349.136 200.881 346.806 200.881 343.932C200.881 341.059 217.496 338.73 237.995 338.73C258.49 338.73 275.107 341.059 275.107 343.932Z" fill="white"/>
<path opacity="0.2" d="M246.036 343.932C246.036 345.869 238.539 347.438 229.294 347.438C220.05 347.438 212.554 345.869 212.554 343.932C212.554 341.997 220.05 340.43 229.294 340.43C238.54 340.43 246.036 341.997 246.036 343.932Z" fill="white"/>
<path d="M248.079 336.084C247.004 336.084 245.939 336.088 244.882 336.102C272.412 336.343 294.247 339.837 294.247 344.114C294.247 348.546 270.758 352.143 241.781 352.143C214.723 352.143 192.457 349.009 189.626 344.983C189.42 345.319 189.314 345.664 189.314 346.008C189.314 351.487 215.622 355.933 248.079 355.933C280.531 355.933 306.838 351.487 306.838 346.008C306.838 340.526 280.531 336.084 248.079 336.084Z" fill="#86A1B4"/>
<path d="M315.682 360.909C315.682 367.008 286.337 371.953 250.139 371.953C213.943 371.953 184.601 367.007 184.601 360.909C184.601 359.193 184.601 334.26 184.601 334.26H315.683C315.683 334.26 315.682 354.807 315.682 360.909Z" fill="#8AA3B6"/>
<path d="M293.32 334.26C293.32 340.16 293.32 346.818 293.32 349.869C293.32 355.969 263.976 360.913 227.784 360.913C211.239 360.913 196.131 359.878 184.6 358.175C184.6 359.61 184.6 360.612 184.6 360.907C184.6 367.007 213.943 371.952 250.138 371.952C286.337 371.952 315.681 367.006 315.681 360.907C315.681 354.806 315.681 334.258 315.681 334.258H293.32V334.26Z" fill="#809EB2"/>
<path d="M305.061 334.26C305.061 340.796 305.061 351.356 305.061 355.442C305.061 361.543 275.717 366.488 239.522 366.488C216.577 366.488 196.396 364.499 184.688 361.49C186.49 367.32 215.101 371.953 250.138 371.953C286.337 371.953 315.681 367.007 315.681 360.909C315.681 354.807 315.681 334.26 315.681 334.26H305.061Z" fill="#7094A9"/>
<path d="M315.682 334.26C315.682 340.361 286.337 345.305 250.139 345.305C213.943 345.305 184.601 340.36 184.601 334.26C184.601 328.159 213.945 323.218 250.139 323.218C286.337 323.218 315.682 328.159 315.682 334.26Z" fill="#A0B0C1"/>
<path opacity="0.1" d="M276.917 331.644C276.917 334.725 259.094 337.222 237.116 337.222C215.128 337.222 197.307 334.725 197.307 331.644C197.307 328.56 215.128 326.063 237.116 326.063C259.094 326.063 276.917 328.56 276.917 331.644Z" fill="white"/>
<path opacity="0.2" d="M245.738 331.644C245.738 333.718 237.699 335.4 227.784 335.4C217.863 335.4 209.827 333.718 209.827 331.644C209.827 329.568 217.863 327.887 227.784 327.887C237.699 327.887 245.738 329.568 245.738 331.644Z" fill="white"/>
<path d="M247.927 323.224C246.779 323.224 245.637 323.23 244.499 323.241C274.027 323.504 297.445 327.253 297.445 331.836C297.445 336.595 272.253 340.447 241.172 340.447C212.156 340.447 188.273 337.089 185.234 332.77C185.017 333.131 184.905 333.499 184.905 333.868C184.905 339.745 213.119 344.51 247.928 344.51C282.74 344.51 310.954 339.745 310.954 333.868C310.953 327.99 282.739 323.224 247.927 323.224Z" fill="#86A1B4"/>
<path d="M311.247 330.491C311.247 336.176 283.887 340.79 250.138 340.79C216.391 340.79 189.03 336.176 189.03 330.491C189.03 328.891 189.03 305.645 189.03 305.645H311.247C311.247 305.645 311.247 324.798 311.247 330.491Z" fill="#4C8FBE"/>
<path d="M290.401 305.645C290.401 311.147 290.401 317.352 290.401 320.2C290.401 325.889 263.042 330.495 229.295 330.495C213.869 330.495 199.789 329.531 189.031 327.941C189.031 329.28 189.031 330.215 189.031 330.492C189.031 336.177 216.392 340.791 250.139 340.791C283.888 340.791 311.248 336.177 311.248 330.492C311.248 324.799 311.248 305.646 311.248 305.646L290.401 305.645Z" fill="#2F8BBE"/>
<path d="M301.346 305.645C301.346 311.733 301.346 321.584 301.346 325.396C301.346 331.081 273.987 335.691 240.236 335.691C218.844 335.691 200.034 333.837 189.113 331.031C190.795 336.467 217.473 340.79 250.138 340.79C283.887 340.79 311.247 336.176 311.247 330.491C311.247 324.798 311.247 305.645 311.247 305.645H301.346Z" fill="#087EAE"/>
<path d="M311.247 305.645C311.247 311.332 283.887 315.945 250.138 315.945C216.391 315.945 189.03 311.332 189.03 305.645C189.03 299.959 216.391 295.349 250.138 295.349C283.888 295.349 311.247 299.959 311.247 305.645Z" fill="#A0B0C1"/>
<path opacity="0.1" d="M275.107 303.202C275.107 306.079 258.49 308.406 237.995 308.406C217.496 308.406 200.881 306.079 200.881 303.202C200.881 300.331 217.496 298.001 237.995 298.001C258.49 298.001 275.107 300.331 275.107 303.202Z" fill="white"/>
<path opacity="0.2" d="M246.036 303.202C246.036 305.143 238.539 306.707 229.294 306.707C220.05 306.707 212.554 305.143 212.554 303.202C212.554 301.267 220.05 299.701 229.294 299.701C238.54 299.701 246.036 301.267 246.036 303.202Z" fill="white"/>
<path d="M248.079 295.354C247.004 295.354 245.939 295.361 244.882 295.37C272.412 295.615 294.247 299.11 294.247 303.381C294.247 307.818 270.758 311.413 241.781 311.413C214.723 311.413 192.457 308.278 189.626 304.254C189.42 304.589 189.314 304.934 189.314 305.279C189.314 310.759 215.622 315.199 248.079 315.199C280.531 315.199 306.838 310.759 306.838 305.279C306.838 299.797 280.531 295.354 248.079 295.354Z" fill="#86A1B4"/>
<path d="M315.682 320.176C315.682 326.276 286.337 331.224 250.139 331.224C213.943 331.224 184.601 326.276 184.601 320.176C184.601 318.464 184.601 293.534 184.601 293.534H315.683C315.683 293.534 315.682 314.074 315.682 320.176Z" fill="#8AA3B6"/>
<path d="M293.32 293.534C293.32 299.431 293.32 306.089 293.32 309.141C293.32 315.24 263.976 320.186 227.784 320.186C211.239 320.186 196.131 319.151 184.6 317.447C184.6 318.881 184.6 319.882 184.6 320.177C184.6 326.277 213.943 331.225 250.138 331.225C286.337 331.225 315.681 326.277 315.681 320.177C315.681 314.076 315.681 293.535 315.681 293.535H293.32V293.534Z" fill="#809EB2"/>
<path d="M305.061 293.534C305.061 300.065 305.061 310.627 305.061 314.714C305.061 320.81 275.717 325.756 239.522 325.756C216.577 325.756 196.396 323.768 184.688 320.761C186.49 326.589 215.101 331.223 250.138 331.223C286.337 331.223 315.681 326.274 315.681 320.175C315.681 314.073 315.681 293.533 315.681 293.533L305.061 293.534Z" fill="#7094A9"/>
<path d="M315.682 293.534C315.682 299.633 286.337 304.579 250.139 304.579C213.943 304.579 184.601 299.633 184.601 293.534C184.601 287.434 213.945 282.489 250.139 282.489C286.337 282.489 315.682 287.434 315.682 293.534Z" fill="#A0B0C1"/>
<path opacity="0.1" d="M276.917 290.913C276.917 293.994 259.094 296.492 237.116 296.492C215.128 296.492 197.307 293.994 197.307 290.913C197.307 287.832 215.128 285.335 237.116 285.335C259.094 285.335 276.917 287.832 276.917 290.913Z" fill="white"/>
<path opacity="0.2" d="M245.738 290.913C245.738 292.99 237.699 294.671 227.784 294.671C217.863 294.671 209.827 292.991 209.827 290.913C209.827 288.837 217.863 287.154 227.784 287.154C237.699 287.154 245.738 288.837 245.738 290.913Z" fill="white"/>
<path d="M247.927 282.495C246.779 282.495 245.637 282.501 244.499 282.509C274.027 282.775 297.445 286.523 297.445 291.104C297.445 295.861 272.253 299.719 241.172 299.719C212.156 299.719 188.273 296.353 185.234 292.039C185.017 292.4 184.905 292.768 184.905 293.137C184.905 299.014 213.119 303.779 247.928 303.779C282.74 303.779 310.954 299.014 310.954 293.137C310.953 287.257 282.739 282.495 247.927 282.495Z" fill="#86A1B4"/>
<path d="M108.326 268.249H106.335V241.937H107.33L238.694 241.828V194.409H240.685V243.819H239.69L108.326 243.929V268.249Z" fill="black"/>
<path d="M390.456 268.249H388.465V243.929L259.592 243.819V194.409H261.584V241.828L390.456 241.937V268.249Z" fill="black"/>
<path d="M251.135 194.409H249.144V268.249H251.135V194.409Z" fill="black"/>
<path d="M109.736 269.353C109.736 268.011 108.644 266.921 107.296 266.921C105.947 266.921 104.857 268.01 104.857 269.353C104.857 270.697 105.947 271.784 107.296 271.784C108.644 271.785 109.736 270.698 109.736 269.353Z" fill="black"/>
<path d="M252.578 269.353C252.578 268.011 251.489 266.921 250.141 266.921C248.79 266.921 247.701 268.01 247.701 269.353C247.701 270.697 248.79 271.784 250.141 271.784C251.489 271.785 252.578 270.698 252.578 269.353Z" fill="black"/>
<path d="M391.935 269.353C391.935 268.011 390.843 266.921 389.494 266.921C388.146 266.921 387.056 268.01 387.056 269.353C387.056 270.697 388.146 271.784 389.494 271.784C390.843 271.785 391.935 270.698 391.935 269.353Z" fill="black"/>
</svg>
